<?xml version="1.0" encoding="UTF-8"?>
<!DOCTYPE svg PUBLIC "-//W3C//DTD SVG 1.1//EN" "http://www.w3.org/Graphics/SVG/1.1/DTD/svg11.dtd">
<svg xmlns="http://www.w3.org/2000/svg" version="1.1" width="991px" height="663px" style="shape-rendering:geometricPrecision; text-rendering:geometricPrecision; image-rendering:optimizeQuality; fill-rule:evenodd; clip-rule:evenodd" xmlns:xlink="http://www.w3.org/1999/xlink">
<g><path style="opacity:0.9" fill="#000000" d="M 913.5,49.5 C 915.199,49.3398 916.866,49.5065 918.5,50C 919.154,65.7155 912.488,77.3822 898.5,85C 894.94,86.2367 891.273,86.7367 887.5,86.5C 887.726,67.9812 896.392,55.6479 913.5,49.5 Z"/></g>
<g><path style="opacity:0.962" fill="#66c846" d="M 172.5,58.5 C 175.5,58.5 178.5,58.5 181.5,58.5C 181.5,82.1667 181.5,105.833 181.5,129.5C 154.833,129.5 128.167,129.5 101.5,129.5C 101.5,109.5 101.5,89.5 101.5,69.5C 125.343,66.1358 149.01,62.4691 172.5,58.5 Z"/></g>
<g><path style="opacity:0.994" fill="#f47421" d="M 297.5,58.5 C 341.999,55.1965 371.499,74.5298 386,116.5C 392.891,154.536 380.057,183.703 347.5,204C 310.271,220.554 277.771,214.054 250,184.5C 235.487,165.94 230.154,144.94 234,121.5C 242.459,87.5409 263.625,66.5409 297.5,58.5 Z"/></g>
<g><path style="opacity:0.949" fill="#000000" d="M 693.5,66.5 C 730.7,63.674 756.534,79.3406 771,113.5C 779.551,148.198 769.051,175.365 739.5,195C 706.529,210.671 677.362,205.504 652,179.5C 635.551,157.947 631.885,134.281 641,108.5C 651.835,86.0188 669.335,72.0188 693.5,66.5 Z M 665.5,110.5 C 670.328,111.641 671.328,114.141 668.5,118C 664,118.833 662.167,117 663,112.5C 663.995,111.934 664.828,111.267 665.5,110.5 Z M 694.5,110.5 C 707.264,110.126 715.097,116.126 718,128.5C 721.238,145.057 714.738,155.057 698.5,158.5C 681.344,155.902 674.177,145.902 677,128.5C 679.041,118.627 684.875,112.627 694.5,110.5 Z M 732.5,111.5 C 738.593,111.139 744.593,111.639 750.5,113C 749.782,114.987 748.782,116.821 747.5,118.5C 742.368,115.75 737.368,115.917 732.5,119C 729.803,122.271 730.136,125.271 733.5,128C 739.408,130.535 744.908,133.702 750,137.5C 753.382,144.154 752.215,149.987 746.5,155C 738.533,159.546 730.533,159.546 722.5,155C 723.329,153.184 724.163,151.351 725,149.5C 729.571,151.851 734.405,152.684 739.5,152C 744.626,149.447 745.793,145.614 743,140.5C 738.69,137.951 734.19,135.785 729.5,134C 720.915,125.257 721.915,117.757 732.5,111.5 Z M 662.5,124.5 C 665.247,124.187 667.914,124.52 670.5,125.5C 669.176,136.03 669.176,146.53 670.5,157C 667.854,157.497 665.187,157.664 662.5,157.5C 662.5,146.5 662.5,135.5 662.5,124.5 Z"/></g>
<g><path style="opacity:0.956" fill="#e44747" d="M 91.5,70.5 C 93.4878,89.8049 94.1545,109.472 93.5,129.5C 73.1667,129.5 52.8333,129.5 32.5,129.5C 32.5,112.833 32.5,96.1667 32.5,79.5C 52.3592,76.8962 72.0259,73.8962 91.5,70.5 Z"/></g>
<g><path style="opacity:0.978" fill="#95cf00" d="M 484.5,69.5 C 485.873,69.3433 487.207,69.51 488.5,70C 490.312,73.1345 492.479,75.9678 495,78.5C 499.787,77.2151 504.621,76.2151 509.5,75.5C 514.379,76.2151 519.213,77.2151 524,78.5C 526.521,75.9678 528.688,73.1345 530.5,70C 531.793,69.51 533.127,69.3433 534.5,69.5C 532.922,73.1459 530.922,76.6459 528.5,80C 539.446,85.4504 545.446,94.2837 546.5,106.5C 521.833,106.5 497.167,106.5 472.5,106.5C 473.554,94.2837 479.554,85.4504 490.5,80C 488.078,76.6459 486.078,73.1459 484.5,69.5 Z M 492.5,88.5 C 496.225,88.5372 497.558,90.2038 496.5,93.5C 490.6,95.2733 489.267,93.6066 492.5,88.5 Z M 523.5,88.5 C 527.485,88.6294 528.818,90.4628 527.5,94C 522.001,94.8063 520.668,92.973 523.5,88.5 Z"/></g>
<g><path style="opacity:1" fill="#fff9f6" d="M 333.5,81.5 C 343.04,80.8703 347.206,85.2036 346,94.5C 343.497,100.461 338.997,102.628 332.5,101C 324.287,94.0964 324.621,87.5964 333.5,81.5 Z"/></g>
<g><path style="opacity:0.977" fill="#000000" d="M 918.5,82.5 C 931.01,83.0889 941.01,88.4223 948.5,98.5C 929.182,115.499 927.515,133.999 943.5,154C 945.976,156.571 948.976,158.071 952.5,158.5C 948.831,173.664 941.164,186.498 929.5,197C 924.262,200.266 918.595,201.266 912.5,200C 899.459,194.096 886.459,194.096 873.5,200C 862.959,202.313 854.459,199.146 848,190.5C 831.095,169.445 824.095,145.445 827,118.5C 828.882,106.222 834.716,96.3891 844.5,89C 851.6,84.6412 859.266,82.9746 867.5,84C 875.382,85.6274 883.215,87.4608 891,89.5C 900.193,86.7439 909.36,84.4106 918.5,82.5 Z"/></g>
<g><path style="opacity:1" fill="#fffbf9" d="M 301.5,92.5 C 308.574,92.161 315.574,92.661 322.5,94C 325.979,103.081 332.646,107.081 342.5,106C 349.617,113.402 353.617,122.235 354.5,132.5C 349.5,132.5 344.5,132.5 339.5,132.5C 337.798,119.288 330.464,110.788 317.5,107C 311.529,106.075 305.695,106.575 300,108.5C 297.037,105.272 294.537,101.605 292.5,97.5C 295.221,95.2658 298.221,93.5991 301.5,92.5 Z"/></g>
<g><path style="opacity:1" fill="#fffaf8" d="M 286.5,99.5 C 289.639,103.09 292.306,107.09 294.5,111.5C 283.243,120.368 279.743,131.701 284,145.5C 286.295,151.1 289.795,155.766 294.5,159.5C 292.198,163.633 289.698,167.633 287,171.5C 278.471,165.298 272.638,157.131 269.5,147C 275.722,139.818 275.889,132.651 270,125.5C 271.988,114.664 277.488,105.998 286.5,99.5 Z"/></g>
<g><path style="opacity:0.961" fill="#95cf00" d="M 456.5,110.5 C 461.126,109.7 464.96,111.034 468,114.5C 468.667,127.833 468.667,141.167 468,154.5C 463.4,160.619 458.4,160.952 453,155.5C 452.333,141.833 452.333,128.167 453,114.5C 454.102,113.051 455.269,111.718 456.5,110.5 Z"/></g>
<g><path style="opacity:0.96" fill="#95cf00" d="M 555.5,110.5 C 559.954,109.617 563.454,110.95 566,114.5C 566.667,128.167 566.667,141.833 566,155.5C 560.6,160.952 555.6,160.619 551,154.5C 550.333,141.167 550.333,127.833 551,114.5C 552.397,112.93 553.897,111.596 555.5,110.5 Z"/></g>
<g><path style="opacity:0.98" fill="#95cf00" d="M 472.5,110.5 C 497.167,110.5 521.833,110.5 546.5,110.5C 546.667,130.169 546.5,149.836 546,169.5C 543.09,174.863 538.59,176.863 532.5,175.5C 532.666,182.508 532.5,189.508 532,196.5C 528.692,200.327 524.526,201.494 519.5,200C 517.951,198.786 516.785,197.286 516,195.5C 515.5,188.842 515.334,182.175 515.5,175.5C 511.5,175.5 507.5,175.5 503.5,175.5C 503.666,182.175 503.5,188.842 503,195.5C 501.601,199.238 498.934,200.904 495,200.5C 491.455,200.961 488.788,199.628 487,196.5C 486.5,189.508 486.334,182.508 486.5,175.5C 480.41,176.863 475.91,174.863 473,169.5C 472.5,149.836 472.333,130.169 472.5,110.5 Z"/></g>
<g><path style="opacity:0.913" fill="#000000" d="M 693.5,116.5 C 702.974,115.135 708.807,119.135 711,128.5C 713.714,138.884 710.547,146.718 701.5,152C 693.351,153.531 687.851,150.365 685,142.5C 682,131.663 684.834,122.996 693.5,116.5 Z"/></g>
<g><path style="opacity:1" fill="#fffaf8" d="M 257.5,125.5 C 267.04,124.87 271.206,129.204 270,138.5C 266.944,144.943 262.111,146.776 255.5,144C 248.468,137.022 249.134,130.856 257.5,125.5 Z"/></g>
<g><path style="opacity:0.958" fill="#10a1ea" d="M 32.5,136.5 C 52.8333,136.5 73.1667,136.5 93.5,136.5C 93.833,156.178 93.4996,175.845 92.5,195.5C 72.5565,192.174 52.5565,189.174 32.5,186.5C 32.5,169.833 32.5,153.167 32.5,136.5 Z"/></g>
<g><path style="opacity:0.961" fill="#f6cd47" d="M 101.5,136.5 C 128.167,136.5 154.833,136.5 181.5,136.5C 181.5,160.167 181.5,183.833 181.5,207.5C 154.757,204.394 128.09,200.727 101.5,196.5C 101.5,176.5 101.5,156.5 101.5,136.5 Z"/></g>
<g><path style="opacity:1" fill="#fffbf9" d="M 339.5,138.5 C 344.5,138.5 349.5,138.5 354.5,138.5C 353.618,148.764 349.618,157.597 342.5,165C 332.989,163.921 326.323,167.754 322.5,176.5C 318.498,178.003 314.331,178.67 310,178.5C 303.877,179.013 298.21,177.679 293,174.5C 293.799,170.559 295.466,166.893 298,163.5C 300.147,162.524 302.314,162.691 304.5,164C 324.098,166.214 335.765,157.714 339.5,138.5 Z"/></g>
<g><path style="opacity:1" fill="#fff9f6" d="M 332.5,169.5 C 345.329,169.168 349.163,174.834 344,186.5C 336.876,191.368 331.209,190.035 327,182.5C 326.114,176.946 327.947,172.613 332.5,169.5 Z"/></g>
<g><path style="opacity:0.446" fill="#000000" d="M 431.5,400.5 C 430.167,400.833 428.833,401.167 427.5,401.5C 454.386,334.391 482.386,267.724 511.5,201.5C 511.833,202 512.167,202.5 512.5,203C 485.695,267.082 458.695,331.082 431.5,395C 431.833,395.5 432.167,396 432.5,396.5C 523.833,332.833 615.167,269.167 706.5,205.5C 707.521,206.002 707.688,206.668 707,207.5C 618.095,270.036 528.929,332.203 439.5,394C 440,394.167 440.5,394.333 441,394.5C 597.333,332.167 753.667,269.833 910,207.5C 910.5,207.833 911,208.167 911.5,208.5C 751.357,273.19 591.357,337.19 431.5,400.5 Z"/></g>
<g><path style="opacity:0.434" fill="#000000" d="M 136.5,206.5 C 147.784,213.148 158.784,220.315 169.5,228C 253.046,286.266 336.379,344.766 419.5,403.5C 418.21,404.408 416.877,404.241 415.5,403C 322.833,338.333 230.167,273.667 137.5,209C 136.748,208.329 136.414,207.496 136.5,206.5 Z"/></g>
<g><path style="opacity:0.452" fill="#000000" d="M 347.5,206.5 C 348.75,206.577 349.583,207.244 350,208.5C 374.833,273 399.667,337.5 424.5,402C 424.167,402.5 423.833,403 423.5,403.5C 397.381,338.145 372.048,272.478 347.5,206.5 Z"/></g>
<g><path style="opacity:0.922" fill="#03ee77" d="M 431.5,400.5 C 435.105,400.799 438.439,401.965 441.5,404C 475.897,424.859 510.23,445.692 544.5,466.5C 536.167,473.167 527.833,479.833 519.5,486.5C 519.167,486.5 518.833,486.5 518.5,486.5C 486.767,461.427 454.767,436.76 422.5,412.5C 422.338,410.473 422.505,408.473 423,406.5C 424.707,404.963 426.207,403.296 427.5,401.5C 428.833,401.167 430.167,400.833 431.5,400.5 Z"/></g>
<g><path style="opacity:0.58" fill="#08d2fd" d="M 422.5,412.5 C 454.767,436.76 486.767,461.427 518.5,486.5C 487.074,511.594 455.074,535.927 422.5,559.5C 422.5,510.5 422.5,461.5 422.5,412.5 Z M 442.5,455.5 C 455.815,465.809 469.148,476.143 482.5,486.5C 469.19,496.643 456.023,506.976 443,517.5C 442.5,496.836 442.333,476.169 442.5,455.5 Z"/></g>
<g><path style="opacity:0.928" fill="#fec701" d="M 544.5,466.5 C 550.604,469.386 556.604,472.553 562.5,476C 566.373,480.785 567.54,486.285 566,492.5C 564.878,494.624 563.378,496.457 561.5,498C 555.806,501.179 550.139,504.345 544.5,507.5C 535.981,500.738 527.648,493.738 519.5,486.5C 527.833,479.833 536.167,473.167 544.5,466.5 Z"/></g>
<g><path style="opacity:0.918" fill="#f83646" d="M 518.5,486.5 C 518.833,486.5 519.167,486.5 519.5,486.5C 527.648,493.738 535.981,500.738 544.5,507.5C 508.062,529.559 471.395,551.392 434.5,573C 430.683,574.023 427.183,573.523 424,571.5C 422.646,567.637 422.146,563.637 422.5,559.5C 455.074,535.927 487.074,511.594 518.5,486.5 Z"/></g>
</svg>
